<?xml version="1.0"?>
<!DOCTYPE svg PUBLIC "-//W3C//DTD SVG 1.1//EN"
"http://www.w3.org/Graphics/SVG/1.1/DTD/svg11.dtd">
<svg version="1.1" xmlns="http://www.w3.org/2000/svg"
xmlns:xlink="http://www.w3.org/1999/xlink"
width="1200px" height="800px"
viewBox="0 0 3 2"
preserveAspectRatio="xMidYMid">

--Pierwsza figura
<g>
	<g>
	<animateTransform attributeName = "transform" type = "rotate"
		from = "0 0.17,0.41" to = "360 0.17,0.41"
		dur = "5s"
		repeatCount="indefinite"/>	
		<polygon points="0.9510565162951535,0.3090169943749474 0.5877852522924731,0.8090169943749475 6.123233995736766e-17,1 -0.587785252292473,0.8090169943749475 -0.9510565162951535,0.3090169943749475 -0.9510565162951536,-0.3090169943749473 -0.5877852522924732,-0.8090169943749473 -1.8369701987210297e-16,-1 0.5877852522924729,-0.8090169943749476 0.9510565162951535,-0.3090169943749476"
			fill="orange" transform="translate(0.17,0.41) scale(0.1,0.1) "/>
	</g>
	<g>
	<animateTransform attributeName = "transform" type = "rotate"
		from = "0 0.65,0.57" to = "360 0.65,0.57"
		dur = "5s"	
		repeatCount="indefinite"/>	
		<polygon points="0.9510565162951535,0.3090169943749474 0.5877852522924731,0.8090169943749475 6.123233995736766e-17,1 -0.587785252292473,0.8090169943749475 -0.9510565162951535,0.3090169943749475 -0.9510565162951536,-0.3090169943749473 -0.5877852522924732,-0.8090169943749473 -1.8369701987210297e-16,-1 0.5877852522924729,-0.8090169943749476 0.9510565162951535,-0.3090169943749476"
			fill="orange" transform="translate(0.65,0.57) scale(0.1,0.1)"/>
	</g>	
	<rect x="0.29" y="0.33	" width = "0.5" height = "0.015	" transform = "rotate (18)" 
		fill="red" stroke="red" stroke-width="0.02" />
	<polygon points="0.3,0.8 0.4,0.47 0.5,0.8" fill="black" />	
	
</g>

--Druga figura
<g transform="translate(0.8,0.4) scale(1.5,1.5)" >
	<g>
		<animateTransform attributeName = "transform" type = "rotate"
		from = "0 0.17,0.41" to = "360 0.17,0.41"
		dur = "5s"
		repeatCount="indefinite"/>	
		<polygon points="0.9510565162951535,0.3090169943749474 0.5877852522924731,0.8090169943749475 6.123233995736766e-17,1 -0.587785252292473,0.8090169943749475 -0.9510565162951535,0.3090169943749475 -0.9510565162951536,-0.3090169943749473 -0.5877852522924732,-0.8090169943749473 -1.8369701987210297e-16,-1 0.5877852522924729,-0.8090169943749476 0.9510565162951535,-0.3090169943749476"
			fill="orange" transform="translate(0.17,0.41) scale(0.1,0.1)"/>
	</g>
	
	<g>
	<animateTransform attributeName = "transform" type = "rotate"
		from = "0 0.65,0.57" to = "360 0.65,0.57"
		dur = "5s"	
		repeatCount="indefinite"/>	
		<polygon points="0.9510565162951535,0.3090169943749474 0.5877852522924731,0.8090169943749475 6.123233995736766e-17,1 -0.587785252292473,0.8090169943749475 -0.9510565162951535,0.3090169943749475 -0.9510565162951536,-0.3090169943749473 -0.5877852522924732,-0.8090169943749473 -1.8369701987210297e-16,-1 0.5877852522924729,-0.8090169943749476 0.9510565162951535,-0.3090169943749476"
			fill="orange" transform="translate(0.65,0.57) scale(0.1,0.1)"/>
	</g>
	<rect x="0.29" y="0.33	" width = "0.5" height = "0.015	" transform = "rotate (18)" 
		fill="red" stroke="red" stroke-width="0.02" />
	<polygon points="0.3,0.8 0.4,0.47 0.5,0.8" fill="black"/>	
</g>

--Trzecia figura
<g transform="translate(1.6,0.2) scale(0.7,0.7)" >
	<g>
		<animateTransform attributeName = "transform" type = "rotate"
		from = "0 0.17,0.41" to = "360 0.17,0.41"
		dur = "5s"
		repeatCount="indefinite"/>	
		<polygon points="0.9510565162951535,0.3090169943749474 0.5877852522924731,0.8090169943749475 6.123233995736766e-17,1 -0.587785252292473,0.8090169943749475 -0.9510565162951535,0.3090169943749475 -0.9510565162951536,-0.3090169943749473 -0.5877852522924732,-0.8090169943749473 -1.8369701987210297e-16,-1 0.5877852522924729,-0.8090169943749476 0.9510565162951535,-0.3090169943749476"
			fill="orange" transform="translate(0.17,0.41) scale(0.1,0.1)"/>
	</g>
	<g>
	<animateTransform attributeName = "transform" type = "rotate"
		from = "0 0.65,0.57" to = "360 0.65,0.57"
		dur = "5s"	
		repeatCount="indefinite"/>	
		<polygon points="0.9510565162951535,0.3090169943749474 0.5877852522924731,0.8090169943749475 6.123233995736766e-17,1 -0.587785252292473,0.8090169943749475 -0.9510565162951535,0.3090169943749475 -0.9510565162951536,-0.3090169943749473 -0.5877852522924732,-0.8090169943749473 -1.8369701987210297e-16,-1 0.5877852522924729,-0.8090169943749476 0.9510565162951535,-0.3090169943749476"
			fill="orange" transform="translate(0.65,0.57) scale(0.1,0.1)"/>
	</g>
	<rect x="0.29" y="0.33	" width = "0.5" height = "0.015	" transform = "rotate (18)" 
		fill="red" stroke="red" stroke-width="0.02" />
	<polygon points="0.3,0.8 0.4,0.47 0.5,0.8" fill="black"/>	
</g>
	
</svg>
